<?xml version="1.0" encoding="UTF-8" standalone="no"?>
<!-- Created with Inkscape (http://www.inkscape.org/) -->

<svg
   width="15.24mm"
   height="128.5mm"
   viewBox="0 0 15.24 128.5"
   version="1.1"
   id="svg1"
   xml:space="preserve"
   inkscape:version="1.3.2 (091e20ef0f, 2023-11-25)"
   sodipodi:docname="Filter.svg"
   xmlns:inkscape="http://www.inkscape.org/namespaces/inkscape"
   xmlns:sodipodi="http://sodipodi.sourceforge.net/DTD/sodipodi-0.dtd"
   xmlns:xlink="http://www.w3.org/1999/xlink"
   xmlns="http://www.w3.org/2000/svg"
   xmlns:svg="http://www.w3.org/2000/svg"><sodipodi:namedview
     id="namedview1"
     pagecolor="#ffffff"
     bordercolor="#000000"
     borderopacity="0.25"
     inkscape:showpageshadow="2"
     inkscape:pageopacity="0.0"
     inkscape:pagecheckerboard="0"
     inkscape:deskcolor="#000000"
     inkscape:document-units="mm"
     inkscape:zoom="0.70710675"
     inkscape:cx="116.67262"
     inkscape:cy="139.30004"
     inkscape:window-width="1392"
     inkscape:window-height="749"
     inkscape:window-x="561"
     inkscape:window-y="101"
     inkscape:window-maximized="0"
     inkscape:current-layer="svg1"
     showguides="true"
     showgrid="true" /><defs
     id="defs1"><inkscape:path-effect
       effect="bspline"
       id="path-effect6"
       is_visible="true"
       lpeversion="1.3"
       weight="33.333333"
       steps="2"
       helper_size="0"
       apply_no_weight="true"
       apply_with_weight="true"
       only_selected="false"
       uniform="false" /><linearGradient
       id="linearGradient8"
       inkscape:collect="always"><stop
         style="stop-color:#770000;stop-opacity:1;"
         offset="0"
         id="stop7" /><stop
         style="stop-color:#656565;stop-opacity:0.8309201;"
         offset="1"
         id="stop8" /></linearGradient><linearGradient
       id="linearGradient5"
       inkscape:collect="always"><stop
         style="stop-color:#850000;stop-opacity:0;"
         offset="0"
         id="stop5" /><stop
         style="stop-color:#b0b0b0;stop-opacity:0;"
         offset="1"
         id="stop6" /></linearGradient><linearGradient
       id="linearGradient1"
       inkscape:collect="always"><stop
         style="stop-color:#000000;stop-opacity:1;"
         offset="0"
         id="stop1" /><stop
         style="stop-color:#656565;stop-opacity:0.83627427;"
         offset="1"
         id="stop3" /></linearGradient><linearGradient
       id="a8e142bb-541b-4903-be63-d5d069028a5d"
       x1="22.5"
       x2="22.5"
       y2="380"
       gradientUnits="userSpaceOnUse"
       gradientTransform="scale(1.1916933,1)"><stop
         offset="0"
         stop-color="#ebebeb"
         id="stop2" /><stop
         offset="1"
         stop-color="#e1e1e1"
         id="stop4" /></linearGradient><linearGradient
       id="a8e142bb-541b-4903-be63-d5d069028a5d-3"
       x1="22.5"
       x2="22.5"
       y2="380"
       gradientUnits="userSpaceOnUse"><stop
         offset="0"
         stop-color="#ebebeb"
         id="stop2-5" /><stop
         offset="1"
         stop-color="#e1e1e1"
         id="stop4-6" /></linearGradient><linearGradient
       inkscape:collect="always"
       xlink:href="#linearGradient1"
       id="linearGradient3"
       x1="4.6577606"
       y1="169.28528"
       x2="8.8534822"
       y2="-3.7525253"
       gradientUnits="userSpaceOnUse" /><linearGradient
       inkscape:collect="always"
       xlink:href="#linearGradient8"
       id="linearGradient4"
       gradientUnits="userSpaceOnUse"
       x1="4.6577606"
       y1="169.28528"
       x2="8.8534822"
       y2="-3.7525253"
       gradientTransform="matrix(-3.6100459,0,0,-3.0252991,56.06294,390.26188)" /><linearGradient
       inkscape:collect="always"
       xlink:href="#linearGradient5"
       id="linearGradient6"
       x1="-10.05321"
       y1="195.20325"
       x2="54.852152"
       y2="195.20325"
       gradientUnits="userSpaceOnUse"
       gradientTransform="translate(0.66925556,0.5631868)" /></defs><g
     id="aea613ef-74be-49bf-be45-c0734aee674b"
     data-name="FND BG"
     inkscape:label="background"
     transform="matrix(0.28496915,0,0,0.33862941,0.02707353,-0.00539303)"><path
       style="fill:url(#linearGradient3);fill-opacity:1;stroke:#b90000;stroke-width:0.264999;stroke-linecap:round;stroke-linejoin:round;stroke-opacity:0"
       d="M 15.239729,128.50113 0.00151705,128.50244 15.243628,0.04607297 l 0.0059,1.47035063 z"
       id="path1"
       transform="matrix(3.5091518,0,0,2.9530808,-0.09500513,0.01592605)"
       sodipodi:nodetypes="ccccc" /><path
       style="fill:url(#linearGradient4);fill-opacity:1;stroke:url(#linearGradient6);stroke-width:0.875757;stroke-linecap:round;stroke-linejoin:round"
       d="M -0.09025677,-0.02704271 53.42462,0.02898794 -0.09417843,379.48437 l -0.0058972,-2.81676 z"
       id="path1-5"
       sodipodi:nodetypes="ccccc" /></g><g
     id="acbff6da-b0ab-490b-8f6a-39b69ff97c7f"
     data-name="FND GRAPH"
     inkscape:label="outline"
     transform="matrix(0.27901288,0,0,0.34048364,0.05207384,-0.20767762)"><g
       id="g5"
       inkscape:label="rec-out-3"
       transform="matrix(0.99996672,0,0,0.75332775,-0.63015968,76.113088)"><rect
         x="6.9792867"
         y="332.27301"
         width="41.550262"
         height="45.19635"
         rx="4.125186"
         fill="#1f1f1f"
         id="rect56-3"
         style="fill:#000000;stroke-width:1.29604"
         inkscape:label="rec-out-3" /><path
         d="m 18.666077,338.13713 q 0,0.544 0.12418,0.98134 0.134527,0.43733 0.372536,0.75733 0.24836,0.30936 0.600198,0.48 0.35184,0.17069 0.807162,0.17069 0.444973,0 0.796813,-0.17069 0.362188,-0.17064 0.600197,-0.48 0.24836,-0.32001 0.372537,-0.75733 0.134527,-0.43734 0.134527,-0.98134 0,-0.544 -0.134527,-0.98134 -0.12418,-0.448 -0.372537,-0.75733 -0.238008,-0.32001 -0.600197,-0.49067 -0.35184,-0.17065 -0.796813,-0.17065 -0.455323,0 -0.807162,0.18135 -0.351841,0.17064 -0.600198,0.49066 -0.238008,0.30936 -0.372536,0.75734 -0.12418,0.43733 -0.12418,0.97067 z m 5.474214,0 q 0,0.94934 -0.279402,1.67467 -0.269054,0.71467 -0.745072,1.20534 -0.476019,0.48 -1.138306,0.72533 -0.651938,0.24533 -1.407358,0.24533 -0.734725,0 -1.386663,-0.24533 -0.651939,-0.24533 -1.138306,-0.72533 -0.486366,-0.49067 -0.765768,-1.20534 -0.279402,-0.72533 -0.279402,-1.67467 0,-0.94934 0.289749,-1.66401 0.289752,-0.72533 0.776117,-1.216 0.496715,-0.49066 1.138306,-0.736 0.651938,-0.24533 1.365966,-0.24533 0.734724,0 1.386663,0.24533 0.651938,0.24533 1.138305,0.736 0.486366,0.49067 0.765769,1.216 0.279401,0.71467 0.279402,1.66401 z m 4.343679,3.85068 q -0.755421,0 -1.303877,-0.21332 -0.548457,-0.22401 -0.910644,-0.608 -0.351841,-0.39467 -0.52776,-0.928 -0.165573,-0.54401 -0.165573,-1.19468 v -4.59734 h 1.614324 v 4.45868 q 0,0.448 0.09313,0.768 0.103482,0.30932 0.269055,0.512 0.17592,0.192 0.413929,0.27734 0.248359,0.0853 0.538108,0.0853 0.589849,0 0.952037,-0.37335 0.372536,-0.37334 0.372536,-1.26933 v -4.45868 h 1.614324 v 4.59735 q 0,0.65066 -0.175921,1.19467 -0.17592,0.544 -0.538107,0.93867 -0.362188,0.384 -0.920993,0.59733 -0.558804,0.21332 -1.324573,0.21332 z m 10.024853,-7.54136 v 1.41867 h -2.16278 v 5.97335 H 34.73172 v -5.97335 h -2.16278 v -1.41867 z"
         id="text5"
         style="font-weight:bold;font-size:2.82223px;font-family:Ubuntu;-inkscape-font-specification:'Ubuntu Bold';text-align:center;letter-spacing:0.0529167px;text-anchor:middle;fill:#f9f9f9;stroke-width:0.984958"
         inkscape:label="rec-out-3"
         aria-label="OUT" /></g><g
       id="g6"
       inkscape:label="rec-out-2"
       transform="matrix(1,0,0,0.75332775,-0.35633347,59.501893)"><rect
         x="6.7045369"
         y="284.04877"
         width="41.550262"
         height="45.19635"
         rx="4.125186"
         fill="#1f1f1f"
         id="rect56-3-6"
         style="fill:#000000;stroke-width:1.29604"
         inkscape:label="rec-out-2" /><path
         d="m 18.391328,289.75783 q 0,0.544 0.124179,0.98134 0.134527,0.43733 0.372537,0.75733 0.248359,0.30936 0.600197,0.48 0.35184,0.17068 0.807162,0.17068 0.444973,0 0.796813,-0.17068 0.362188,-0.17064 0.600197,-0.48 0.24836,-0.32001 0.372537,-0.75733 0.134527,-0.43734 0.134527,-0.98134 0,-0.544 -0.134527,-0.98134 -0.12418,-0.448 -0.372537,-0.75733 -0.238008,-0.32001 -0.600197,-0.49067 -0.35184,-0.17065 -0.796813,-0.17065 -0.455323,0 -0.807162,0.18134 -0.351841,0.17065 -0.600197,0.49067 -0.238009,0.30935 -0.372537,0.75733 -0.124179,0.43734 -0.124179,0.97067 z m 5.474213,0 q 0,0.94934 -0.279402,1.67467 -0.269054,0.71467 -0.745072,1.20534 -0.476018,0.48 -1.138305,0.72533 -0.651939,0.24533 -1.407359,0.24533 -0.734725,0 -1.386663,-0.24533 -0.651939,-0.24533 -1.138305,-0.72533 -0.486367,-0.49067 -0.765769,-1.20534 -0.279402,-0.72533 -0.279402,-1.67467 0,-0.94934 0.289749,-1.66401 0.289753,-0.72533 0.776117,-1.216 0.496715,-0.49067 1.138306,-0.736 0.651938,-0.24533 1.365966,-0.24533 0.734724,0 1.386663,0.24533 0.651938,0.24533 1.138305,0.736 0.486367,0.49067 0.765769,1.216 0.279401,0.71467 0.279402,1.66401 z m 4.343679,3.85067 q -0.755421,0 -1.303877,-0.21331 -0.548456,-0.22401 -0.910644,-0.608 -0.351841,-0.39467 -0.52776,-0.92801 -0.165573,-0.544 -0.165573,-1.19467 v -4.59734 h 1.614324 v 4.45868 q 0,0.448 0.09313,0.768 0.103481,0.30932 0.269054,0.512 0.17592,0.192 0.413929,0.27734 0.248359,0.0854 0.538108,0.0854 0.589849,0 0.952037,-0.37335 0.372536,-0.37334 0.372536,-1.26933 v -4.45868 h 1.614324 v 4.59735 q 0,0.65066 -0.17592,1.19467 -0.175921,0.54399 -0.538108,0.93866 -0.362188,0.384 -0.920993,0.59734 -0.558804,0.21332 -1.324573,0.21332 z m 10.024853,-7.54135 v 1.41867 h -2.16278 v 5.97335 H 34.45697 v -5.97335 h -2.16278 v -1.41867 z"
         id="path2"
         style="font-weight:bold;font-size:2.82223px;font-family:Ubuntu;-inkscape-font-specification:'Ubuntu Bold';text-align:center;letter-spacing:0.0529167px;text-anchor:middle;fill:#f9f9f9;stroke-width:0.984958"
         inkscape:label="rec-out-2"
         aria-label="OUT" /></g><g
       id="g8"
       inkscape:label="rec-out-1"
       transform="matrix(1,0,0,0.75332775,-0.24580034,1.111514)"><rect
         x="6.5940037"
         y="291.28152"
         width="41.550262"
         height="45.19635"
         rx="4.125186"
         fill="#1f1f1f"
         id="rect7"
         style="fill:#000000;stroke-width:1.29604"
         inkscape:label="rec-out-1" /><path
         d="m 18.28065,296.98881 q 0,0.54396 0.124168,0.98126 0.134515,0.43729 0.372505,0.75726 0.248337,0.30934 0.600145,0.47996 0.351809,0.17067 0.807092,0.17067 0.444934,0 0.796743,-0.17067 0.362157,-0.17062 0.600145,-0.47996 0.248339,-0.31998 0.372505,-0.75726 0.134515,-0.4373 0.134515,-0.98126 0,-0.54395 -0.134515,-0.98125 -0.124169,-0.44796 -0.372505,-0.75726 -0.237987,-0.31999 -0.600145,-0.49063 -0.351809,-0.17064 -0.796743,-0.17064 -0.455284,0 -0.807092,0.18133 -0.351811,0.17063 -0.600145,0.49062 -0.237989,0.30933 -0.372505,0.75727 -0.124168,0.4373 -0.124168,0.97058 z m 5.473738,0 q 0,0.94926 -0.279378,1.67453 -0.269031,0.71461 -0.745007,1.20523 -0.475977,0.47996 -1.138207,0.72527 -0.651882,0.24531 -1.407236,0.24531 -0.734662,0 -1.386543,-0.24531 -0.651882,-0.24531 -1.138206,-0.72527 -0.486325,-0.49062 -0.765703,-1.20523 -0.279377,-0.72527 -0.279377,-1.67453 0,-0.94925 0.289723,-1.66386 0.289728,-0.72527 0.77605,-1.2159 0.496672,-0.49062 1.138207,-0.73593 0.651882,-0.24531 1.365848,-0.24531 0.73466,0 1.386542,0.24531 0.651882,0.24531 1.138206,0.73593 0.486325,0.49063 0.765703,1.2159 0.279377,0.71461 0.279378,1.66386 z m 4.343301,3.85034 q -0.755355,0 -1.303763,-0.21329 -0.548409,-0.22399 -0.910565,-0.60795 -0.351811,-0.39463 -0.527714,-0.92793 -0.165559,-0.54395 -0.165559,-1.19456 v -4.59694 h 1.614184 v 4.45829 q 0,0.44796 0.09312,0.76793 0.103472,0.30929 0.26903,0.51196 0.175905,0.19198 0.413893,0.27731 0.248338,0.0854 0.538062,0.0854 0.589797,0 0.951954,-0.37332 0.372504,-0.37331 0.372504,-1.26922 v -4.45829 h 1.614183 v 4.59695 q 0,0.6506 -0.175904,1.19456 -0.175906,0.54395 -0.538062,0.93858 -0.362156,0.38397 -0.920913,0.59729 -0.558755,0.2133 -1.324458,0.2133 z m 10.023983,-7.54069 V 294.717 H 35.95908 v 5.97283 H 34.344897 V 294.717 h -2.162592 v -1.41854 z"
         id="path3"
         style="font-weight:bold;font-size:2.82223px;font-family:Ubuntu;-inkscape-font-specification:'Ubuntu Bold';text-align:center;letter-spacing:0.0529167px;text-anchor:middle;fill:#f9f9f9;stroke-width:0.984872"
         inkscape:label="rec-out-1"
         aria-label="OUT" /></g><g
       id="g12"
       inkscape:label="power-switch"
       transform="matrix(2.4602945,0,0,1.9105105,0.89487898,-48.171002)"><rect
         x="2.0835245"
         y="52.083549"
         width="11.331833"
         height="11.9582"
         rx="1.1250451"
         fill="#1f1f1f"
         id="rect11"
         style="stroke-width:0.348147"
         inkscape:label="rec-in" /></g><rect
       x="6.9684715"
       y="167.60112"
       width="40.309727"
       height="34.047665"
       rx="4.0020232"
       fill="#1f1f1f"
       id="rect7-2"
       style="display:inline;stroke-width:1.10797"
       inkscape:label="rec-in" /><g
       id="g11"
       inkscape:label="Frq"
       style="display:inline"
       transform="matrix(1.1256918,0,0,1.1602987,-151.46933,112.66977)"><path
         style="opacity:1;fill:none;stroke:#000000;stroke-width:1.23192;stroke-linecap:round;stroke-linejoin:round;stroke-dasharray:none;stroke-opacity:1"
         d="m 158.56438,-1.8771024 -0.0395,-2.2164206 z"
         id="path6" /><path
         style="display:inline;opacity:1;fill:none;stroke:#000000;stroke-width:1.23191;stroke-linecap:round;stroke-linejoin:round;stroke-dasharray:none;stroke-opacity:1"
         d="m 168.47644,22.366871 3.01061,3.065731 z"
         id="path7"
         transform="translate(3.0785496e-6)" /><path
         style="display:inline;fill:none;stroke:#000000;stroke-width:1.23191;stroke-linecap:round;stroke-linejoin:round;stroke-dasharray:none;stroke-opacity:1"
         d="m 146.2401,25.432602 3.01061,-3.065731 z"
         id="path7-3"
         transform="translate(3.0785496e-6)" /><path
         id="sum-8"
         data-name="Lev1#RoundBlackKnob"
         style="display:inline;opacity:1;fill:none;stroke:#000000;stroke-width:1.23192;stroke-linecap:round;stroke-linejoin:round;stroke-dasharray:none;stroke-opacity:1"
         inkscape:label="circle"
         sodipodi:type="arc"
         sodipodi:cx="158.65259"
         sodipodi:cy="12.741157"
         sodipodi:rx="17.992891"
         sodipodi:ry="14.304248"
         sodipodi:start="2.268928"
         sodipodi:end="0.87266463"
         sodipodi:arc-type="arc"
         d="M 147.08698,23.698846 A 17.992891,14.304248 0 0 1 141.7448,7.8488159 17.992891,14.304248 0 0 1 158.65259,-1.5630913 17.992891,14.304248 0 0 1 175.56038,7.8488156 17.992891,14.304248 0 0 1 170.2182,23.698846"
         sodipodi:open="true"
         transform="translate(-4.5623717e-6)" /></g></g><g
     id="f45e0130-37b7-4f8b-95b3-6408baa23eb1"
     data-name="components"
     style="display:none"
     inkscape:groupmode="layer"
     transform="matrix(0.27069024,0,0,0.34049326,-35.325707,27.922027)"
     inkscape:label="components"><ellipse
       id="power-light"
       data-name="Lev1#RoundBlackKnob"
       cx="174.89516"
       cy="-19.858044"
       style="display:inline;fill:#ff00ff;fill-opacity:1;stroke-width:0.885769"
       inkscape:label="power-light"
       rx="4.9673972"
       ry="3.9486833" /><ellipse
       id="in-1"
       data-name="Lev1#RoundBlackKnob"
       cx="158.88164"
       cy="102.00517"
       style="display:inline;fill:#00ff00;fill-opacity:1;stroke-width:1.37521"
       inkscape:label="in-1"
       rx="7.7117667"
       ry="6.1308117" /><ellipse
       id="out-3"
       data-name="Lev1#RoundBlackKnob"
       cx="158.88232"
       cy="260.82312"
       style="display:inline;fill:#0000ff;fill-opacity:1;stroke-width:1.37521"
       inkscape:label="out-3"
       inkscape:transform-center-x="-0.8923481"
       inkscape:transform-center-y="-9.6390685"
       rx="7.7117667"
       ry="6.1308117" /><ellipse
       id="out-1"
       data-name="Lev1#RoundBlackKnob"
       cx="158.88164"
       cy="154.94452"
       style="display:inline;fill:#0000ff;fill-opacity:1;stroke-width:1.37521"
       inkscape:label="out-1"
       inkscape:transform-center-x="-0.8923481"
       inkscape:transform-center-y="-9.6390711"
       rx="7.7117667"
       ry="6.1308117" /><ellipse
       id="out-2"
       data-name="Lev1#RoundBlackKnob"
       cx="158.88164"
       cy="207.88477"
       style="display:inline;fill:#0000ff;fill-opacity:1;stroke-width:1.37521"
       inkscape:label="out-2"
       inkscape:transform-center-x="-0.8923481"
       inkscape:transform-center-y="-9.6390737"
       rx="7.7117667"
       ry="6.1308117" /><ellipse
       id="power"
       data-name="Lev1#RoundBlackKnob"
       cx="151.27118"
       cy="-19.858044"
       style="display:inline;fill:#ff0000;stroke-width:1.3752"
       inkscape:label="power"
       rx="7.7117667"
       ry="6.1308117" /><ellipse
       id="frq"
       data-name="Lev1#RoundBlackKnob"
       cx="158.65259"
       cy="42.893696"
       style="display:inline;fill:#ff0000;stroke-width:1.3752"
       inkscape:label="frq"
       rx="7.7117667"
       ry="6.1308117" /></g><g
     id="g2"
     inkscape:label="text"
     transform="matrix(1.0230812,0,0,1.2869036,-6.2489584e-4,0.00154728)"><path
       style="font-weight:bold;font-size:2.11667px;font-family:'Noto Serif Georgian';-inkscape-font-specification:'Noto Serif Georgian Bold';text-align:center;letter-spacing:0.0529167px;text-anchor:middle;stroke:#b90000;stroke-width:0.23095;stroke-linecap:round;stroke-linejoin:round;stroke-opacity:0"
       d="m 1.8234016,10.957276 h 0.6455263 q 0.2879108,0 0.4414632,0.101995 0.1545626,0.101193 0.1545626,0.289121 0,0.188732 -0.1545626,0.290727 -0.1535524,0.101193 -0.4414632,0.101193 H 2.2123337 v 0.416013 H 1.8234016 Z m 0.3889321,0.224069 v 0.334898 h 0.2151755 q 0.1131439,0 0.1747669,-0.04337 0.061623,-0.04417 0.061623,-0.124482 0,-0.08031 -0.061623,-0.123679 -0.061623,-0.04337 -0.1747669,-0.04337 z m 1.8680864,-0.02168 q -0.1777976,0 -0.2757882,0.104405 -0.097991,0.104405 -0.097991,0.293939 0,0.188732 0.097991,0.293136 0.097991,0.104405 0.2757882,0.104405 0.1788077,0 0.2767984,-0.104405 0.097991,-0.104404 0.097991,-0.293136 0,-0.189534 -0.097991,-0.293939 -0.097991,-0.104409 -0.2767984,-0.104409 z m 0,-0.224069 q 0.3636767,0 0.5697603,0.165441 0.2060835,0.165442 0.2060835,0.456972 0,0.290728 -0.2060835,0.456169 -0.2060836,0.165441 -0.5697603,0.165441 -0.3626666,0 -0.5697603,-0.165441 -0.2060836,-0.165441 -0.2060836,-0.456169 0,-0.29153 0.2060836,-0.456972 0.2070937,-0.165441 0.5697603,-0.165441 z m 0.9932417,0.02169 h 0.3727687 l 0.260635,0.871378 0.2586147,-0.871378 h 0.3747891 l 0.2586146,0.871378 0.260635,-0.871378 H 7.229457 L 6.873862,12.156325 H 6.4253272 L 6.1515594,11.244791 5.8808222,12.156325 H 5.4322875 Z m 2.4620916,0 H 8.585365 v 0.233706 H 7.9246855 v 0.223266 h 0.6212812 v 0.233698 H 7.9246855 v 0.274665 h 0.6829042 v 0.233706 H 7.5357534 Z m 2.017598,0.531661 q 0.1222358,0 0.1747669,-0.03614 0.053541,-0.03614 0.053541,-0.11886 0,-0.08192 -0.053541,-0.117256 -0.052532,-0.03534 -0.1747669,-0.03534 H 9.3896968 v 0.307592 z m -0.1636546,0.213621 v 0.453759 H 9.0007647 v -1.199049 h 0.5940055 q 0.2980125,0 0.4364118,0.07951 0.13941,0.07951 0.13941,0.251374 0,0.118861 -0.07273,0.195156 -0.07172,0.0763 -0.2171956,0.112437 0.079808,0.01445 0.1424406,0.06586 0.06364,0.05059 0.128296,0.154198 l 0.211135,0.34052 H 9.9483452 L 9.764486,11.85837 q -0.055562,-0.08995 -0.1131439,-0.122877 -0.056572,-0.03293 -0.151532,-0.03293 z"
       id="text11"
       aria-label="POWER"
       inkscape:label="Power" /><path
       style="font-weight:bold;font-size:2.82223px;font-family:Ubuntu;-inkscape-font-specification:'Ubuntu Bold';text-align:center;letter-spacing:0.0529167px;text-anchor:middle;display:inline;fill:#f9f9f9;stroke-width:0.231024"
       d="m 6.1745182,44.670404 h 0.4271221 v 1.537023 H 6.1745182 Z m 2.1896889,1.537023 Q 8.1807636,45.943495 7.9672025,45.686215 7.7536414,45.428934 7.5126986,45.200488 v 1.006939 H 7.0910507 V 44.670404 H 7.438774 q 0.090353,0.07319 0.1998716,0.179652 0.1095189,0.106459 0.2217764,0.228446 0.1149932,0.119768 0.2272506,0.250626 0.1122574,0.12864 0.2108226,0.248408 v -0.907132 h 0.4243864 v 1.537023 z"
       id="text7-5"
       inkscape:label="rec-in"
       aria-label="IN" /><g
       id="text1-5"
       style="font-weight:bold;font-size:2.98494px;font-family:'Noto Serif Georgian';-inkscape-font-specification:'Noto Serif Georgian Bold';text-align:center;letter-spacing:0.0746237px;text-anchor:middle;stroke:#b90000;stroke-width:0.373704;stroke-linecap:round;stroke-linejoin:round;stroke-opacity:0"
       transform="matrix(1.0846461,0,0,0.92195971,0,2.7200728)"
       aria-label="FRQ&#10;FILTER"><path
         style="stroke-width:0.373706"
         d="M 3.2397071,1.6118085 H 4.7540395 V 2.0359382 H 3.8008409 V 2.4411205 H 4.6971974 V 2.8652502 H 3.8008409 V 3.7878415 H 3.2397071 Z m 2.9108997,0.9648586 q 0.1763563,0 0.2521458,-0.065587 0.077247,-0.065587 0.077247,-0.2157085 0,-0.148664 -0.077247,-0.2127936 -0.075789,-0.06413 -0.2521458,-0.06413 H 5.9144933 V 2.5766671 Z M 5.9144933,2.9643595 v 0.823482 H 5.3533596 v -2.176033 h 0.8570043 q 0.4299596,0 0.6296358,0.1442916 0.2011336,0.1442915 0.2011336,0.4561944 0,0.2157086 -0.1049393,0.3541702 -0.1034818,0.1384615 -0.3133604,0.2040486 0.1151417,0.026235 0.2055061,0.1195142 0.091822,0.091822 0.1851013,0.2798381 L 7.3180565,3.7878415 H 6.7204855 L 6.4552222,3.2471126 Q 6.3750603,3.0838737 6.2919833,3.0241166 6.2103639,2.9643595 6.0733598,2.9643595 Z m 2.8657175,0.8628342 h -0.043725 q -0.5378139,0 -0.8365994,-0.297328 -0.2987855,-0.297328 -0.2987855,-0.8278544 0,-0.529069 0.297328,-0.829312 0.2987855,-0.300243 0.8220245,-0.300243 0.5290689,0 0.823482,0.297328 0.2958705,0.297328 0.2958705,0.832227 0,0.3672875 -0.1574089,0.6325507 Q 9.5264458,3.5998253 9.2320328,3.7339144 L 9.6707373,4.2236311 H 9.1358384 Z M 8.7204537,1.9790961 q -0.2565183,0 -0.3978949,0.1894737 -0.1413765,0.1894738 -0.1413765,0.5334415 0,0.3497976 0.1384616,0.5363564 0.1384615,0.1851012 0.4008098,0.1851012 0.2579758,0 0.3993523,-0.1894737 0.1413766,-0.1894737 0.1413766,-0.5319839 0,-0.3439677 -0.1413766,-0.5334415 Q 8.9784295,1.9790961 8.7204537,1.9790961 Z"
         id="path8" /><path
         style="stroke-width:0.373706"
         d="M 1.1369857,4.4991846 H 2.6513181 V 4.9233143 H 1.6981195 V 5.3284966 H 2.594476 V 5.7526262 H 1.6981195 V 6.6752176 H 1.1369857 Z m 2.1136525,0 h 0.5611337 v 2.176033 H 3.2506382 Z m 1.1852314,0 H 4.9970034 V 6.2510879 H 5.9822668 V 6.6752176 H 4.4358696 Z m 1.223126,0 H 7.6645022 V 4.9233143 H 6.9430445 V 6.6752176 H 6.3819107 V 4.9233143 H 5.6589956 Z m 2.370171,0 H 9.543499 V 4.9233143 H 8.5903004 V 5.3284966 H 9.4866569 V 5.7526262 H 8.5903004 V 6.2510879 H 9.5755638 V 6.6752176 H 8.0291666 Z m 2.9109004,0.9648586 q 0.176356,0 0.252145,-0.065587 0.07725,-0.065587 0.07725,-0.2157086 0,-0.148664 -0.07725,-0.2127935 -0.07579,-0.06413 -0.252145,-0.06413 h -0.236114 v 0.5582188 z m -0.236114,0.3876924 v 0.823482 h -0.561134 v -2.176033 h 0.857005 q 0.429959,0 0.629635,0.1442915 0.201134,0.1442916 0.201134,0.4561945 0,0.2157086 -0.104939,0.3541701 -0.103482,0.1384616 -0.313361,0.2040487 0.115142,0.026235 0.205506,0.1195142 0.09182,0.091822 0.185102,0.2798381 l 0.304615,0.6179759 H 11.509945 L 11.244682,6.1344887 Q 11.16452,5.9712498 11.081443,5.9114927 10.999824,5.8517356 10.86282,5.8517356 Z"
         id="path9" /></g><g
       id="text1"
       style="font-weight:bold;font-size:2.98494px;font-family:'Noto Serif Georgian';-inkscape-font-specification:'Noto Serif Georgian Bold';text-align:center;letter-spacing:0.0737878px;word-spacing:0px;text-anchor:middle;fill:#ffffff;stroke:#b90000;stroke-width:0.373704;stroke-linecap:round;stroke-linejoin:round;stroke-opacity:0"
       transform="matrix(1.0846461,0,0,0.92195971,0,2.7200728)"
       aria-label="FRQ&#10;FILTER"><path
         style="stroke-width:0.373706"
         d="M 3.6706284,1.8862867 H 5.1849608 V 2.3104164 H 4.2317622 V 2.7155987 H 5.1281187 V 3.1397284 H 4.2317622 V 4.0623197 H 3.6706284 Z m 2.9100638,0.9648586 q 0.1763563,0 0.2521458,-0.065587 0.077247,-0.065587 0.077247,-0.2157085 0,-0.148664 -0.077247,-0.2127936 -0.075789,-0.06413 -0.2521458,-0.06413 H 6.3445788 V 2.8511453 Z M 6.3445788,3.2388377 v 0.823482 H 5.783445 v -2.176033 h 0.8570043 q 0.4299596,0 0.6296358,0.1442916 0.2011336,0.1442915 0.2011336,0.4561944 0,0.2157086 -0.1049393,0.3541702 -0.1034818,0.1384615 -0.3133604,0.2040486 0.1151418,0.026235 0.2055062,0.1195142 0.091822,0.091822 0.1851012,0.2798381 L 7.7481419,4.0623197 H 7.1505709 L 6.8853076,3.5215908 Q 6.8051457,3.3583519 6.7220687,3.2985948 6.6404493,3.2388377 6.5034452,3.2388377 Z m 2.8648815,0.8628342 h -0.043725 q -0.5378139,0 -0.8365994,-0.297328 -0.2987855,-0.297328 -0.2987855,-0.8278544 0,-0.529069 0.297328,-0.829312 0.2987855,-0.300243 0.8220245,-0.300243 0.529069,0 0.823482,0.297328 0.2958711,0.297328 0.2958711,0.832227 0,0.3672875 -0.157409,0.6325507 Q 9.9556953,3.8743035 9.6612823,4.0083926 L 10.099987,4.4981093 H 9.5650879 Z M 9.1497032,2.2535743 q -0.2565183,0 -0.3978948,0.1894737 -0.1413766,0.1894738 -0.1413766,0.5334415 0,0.3497976 0.1384616,0.5363564 0.1384616,0.1851012 0.4008098,0.1851012 0.2579758,0 0.3993523,-0.1894737 0.1413766,-0.1894737 0.1413766,-0.5319839 0,-0.3439677 -0.1413766,-0.5334415 Q 9.407679,2.2535743 9.1497032,2.2535743 Z"
         id="path10" /><path
         style="stroke-width:0.373706"
         d="M 1.5687429,4.7736628 H 3.0830753 V 5.1977925 H 2.1298767 V 5.6029748 H 3.0262332 V 6.0271044 H 2.1298767 V 6.9496958 H 1.5687429 Z m 2.1128166,0 h 0.5611338 v 2.176033 H 3.6815595 Z m 1.1843956,0 H 5.4270888 V 6.5255661 H 6.4123522 V 6.9496958 H 4.8659551 Z m 1.22229,0 H 8.0937517 V 5.1977925 H 7.372294 V 6.9496958 H 6.8111603 V 5.1977925 H 6.0882451 Z m 2.3693352,0 H 9.9719127 V 5.1977925 H 9.018714 V 5.6029748 H 9.9150705 V 6.0271044 H 9.018714 v 0.4984617 h 0.985263 V 6.9496958 H 8.4575803 Z m 2.9100637,0.9648586 q 0.176356,0 0.252146,-0.065587 0.07725,-0.065587 0.07725,-0.2157086 0,-0.148664 -0.07725,-0.2127935 -0.07579,-0.06413 -0.252146,-0.06413 H 11.13153 V 5.7385214 Z M 11.13153,6.1262138 v 0.823482 h -0.561133 v -2.176033 h 0.857004 q 0.42996,0 0.629636,0.1442915 0.201133,0.1442916 0.201133,0.4561945 0,0.2157086 -0.104939,0.3541701 -0.103482,0.1384616 -0.31336,0.2040487 0.115141,0.026235 0.205506,0.1195142 0.09182,0.091822 0.185101,0.2798381 l 0.304615,0.6179759 H 11.937522 L 11.672259,6.4089669 Q 11.592097,6.245728 11.50902,6.1859709 11.427401,6.1262138 11.290397,6.1262138 Z"
         id="path11" /></g><path
       style="font-weight:bold;font-size:1.84469px;font-family:'Noto Serif Georgian';-inkscape-font-specification:'Noto Serif Georgian Bold';text-align:center;letter-spacing:0.0737878px;word-spacing:0px;text-anchor:middle;stroke:#b90000;stroke-width:0.316468;stroke-linecap:round;stroke-linejoin:round;stroke-opacity:0"
       d="m 1.8722593,55.789977 h 0.5329466 v 1.322792 h 0.9357713 v 0.320244 H 1.8722593 Z m 2.7629063,0.277324 q -0.2436327,0 -0.3779076,0.143064 -0.1342756,0.143063 -0.1342756,0.402781 0,0.258615 0.1342756,0.40168 0.1342755,0.143063 0.3779076,0.143063 0.245017,0 0.3792919,-0.143063 0.1342755,-0.143065 0.1342755,-0.40168 0,-0.259718 -0.1342755,-0.402781 Q 4.880182,56.067301 4.6351656,56.067301 Z m 0,-0.307037 q 0.4983397,0 0.7807321,0.226701 0.2823927,0.226701 0.2823927,0.626181 0,0.398377 -0.2823927,0.625079 -0.2823924,0.226702 -0.7807321,0.226702 -0.4969554,0 -0.7807322,-0.226702 -0.2823925,-0.226702 -0.2823925,-0.625079 0,-0.39948 0.2823925,-0.626181 0.2837768,-0.226701 0.7807322,-0.226701 z m 1.4035465,0.02971 h 0.5107981 l 0.3571435,1.194034 0.354375,-1.194034 h 0.5135667 l 0.3543753,1.194034 0.357143,-1.194034 h 0.506645 l -0.487265,1.643036 h -0.614619 l -0.375139,-1.24906 -0.3709863,1.24906 h -0.614619 z"
       id="text4"
       aria-label="LOW" /><path
       style="font-weight:bold;font-size:1.84469px;font-family:'Noto Serif Georgian';-inkscape-font-specification:'Noto Serif Georgian Bold';text-align:center;letter-spacing:0.0737878px;word-spacing:0px;text-anchor:middle;stroke:#b90000;stroke-width:0.326421;stroke-linecap:round;stroke-linejoin:round;stroke-opacity:0"
       d="m 2.7310661,70.428593 q 0.1299304,0 0.1970378,-0.0454 0.067107,-0.0454 0.067107,-0.133941 0,-0.08741 -0.067107,-0.132807 -0.067107,-0.04654 -0.1970378,-0.04654 H 2.4269427 v 0.358691 z m 0.018563,0.741222 q 0.165626,0 0.248439,-0.05561 0.084241,-0.05563 0.084241,-0.167995 0,-0.110105 -0.082812,-0.164589 -0.082812,-0.05563 -0.2498667,-0.05563 H 2.4269435 v 0.443824 z m 0.511156,-0.609549 q 0.1770485,0.04087 0.2741396,0.150968 0.097092,0.110104 0.097092,0.270154 0,0.245182 -0.2084603,0.365503 -0.2084602,0.120325 -0.6339477,0.120325 H 1.8772358 V 69.77251 H 2.70251 q 0.4440488,0 0.6425145,0.106701 0.1998934,0.106702 0.1998934,0.341665 0,0.123728 -0.072819,0.211129 -0.072818,0.08627 -0.2113159,0.128267 z m 2.255825,0.598198 H 4.6570682 L 4.5214264,71.467212 H 3.9688636 l 0.7895791,-1.694706 h 0.6553648 l 0.789579,1.694706 H 5.6508241 Z M 4.7941379,70.844041 H 5.3781123 L 5.086839,70.16979 Z m 1.8089215,-1.071535 h 0.6139584 l 0.7753009,1.162343 v -1.162343 h 0.5211506 v 1.694706 H 7.899511 L 7.1242101,70.304868 v 1.162344 H 6.6030594 Z m 3.1139401,0.330313 v 1.034078 h 0.197038 q 0.3369615,0 0.5140095,-0.132807 0.178477,-0.132806 0.178477,-0.385933 0,-0.251994 -0.177049,-0.383665 -0.177048,-0.131673 -0.5154375,-0.131673 z m -0.549707,-0.330313 h 0.579691 q 0.4854535,0 0.7224705,0.05561 0.238444,0.05449 0.408354,0.186158 0.149919,0.114641 0.222738,0.264478 0.07282,0.149834 0.07282,0.339396 0,0.191832 -0.07282,0.342801 -0.07282,0.149833 -0.222738,0.264477 -0.171337,0.131672 -0.411209,0.187292 -0.239872,0.05448 -0.7196155,0.05448 h -0.579691 z"
       id="text4-7"
       aria-label="BAND" /><path
       style="font-weight:bold;font-size:1.84469px;font-family:'Noto Serif Georgian';-inkscape-font-specification:'Noto Serif Georgian Bold';text-align:center;letter-spacing:0.0737878px;word-spacing:0px;text-anchor:middle;stroke:#b90000;stroke-width:0.316432;stroke-linecap:round;stroke-linejoin:round;stroke-opacity:0"
       d="m 1.8722413,83.804543 h 0.5328859 v 0.626109 H 3.1913068 V 83.804543 H 3.7241927 V 85.44739 H 3.1913068 V 84.750859 H 2.4051272 V 85.44739 H 1.8722413 Z m 2.4857674,0 H 4.8908946 V 85.44739 H 4.3580087 Z m 3.025574,1.520708 q -0.1993132,0.07702 -0.4138517,0.115543 -0.2145384,0.03852 -0.4429181,0.03852 -0.5162763,0 -0.8180143,-0.228877 -0.301738,-0.229977 -0.301738,-0.622808 0,-0.397232 0.3072744,-0.625008 0.3072745,-0.227776 0.8415444,-0.227776 0.2062338,0 0.3944741,0.03081 0.1896242,0.03081 0.3571027,0.09133 v 0.340014 q -0.173015,-0.07812 -0.3446457,-0.116643 -0.1702467,-0.03851 -0.3418775,-0.03851 -0.3183473,0 -0.4913623,0.141946 -0.1716308,0.140849 -0.1716308,0.403835 0,0.260788 0.1660943,0.402735 0.1660943,0.141948 0.4719847,0.141948 0.083048,0 0.1536376,-0.0077 0.071974,-0.0088 0.1287236,-0.02641 V 84.819081 H 6.5531113 v -0.283895 h 0.8304714 z m 0.5826039,-1.520708 h 0.5328861 v 0.626109 h 0.78618 v -0.626109 h 0.532885 v 1.642847 h -0.532885 v -0.696531 h -0.78618 V 85.44739 H 7.9661866 Z"
       id="text6"
       aria-label="HIGH" /><path
       style="font-size:1.60638px;font-family:'Noto Serif Georgian';-inkscape-font-specification:'Noto Serif Georgian';text-align:center;letter-spacing:0.0963832px;word-spacing:0px;text-anchor:middle;fill:none;stroke:#000000;stroke-width:0.218595;stroke-linecap:round;stroke-linejoin:round"
       d="m 5.9329631,28.09029 v -0.118546 h 0.5169486 v 0.118546 z m 2.8729652,-0.619524 v 0.429882 h 0.5407536 v 0.131203 H 8.8059283 v 0.429884 H 8.6428286 V 28.031851 H 8.102075 v -0.131203 h 0.5407536 v -0.429882 z"
       id="text7"
       aria-label="-  +" /><path
       style="font-weight:bold;font-size:2.15708px;font-family:'Noto Serif Georgian';-inkscape-font-specification:'Noto Serif Georgian Bold';text-align:center;letter-spacing:0.129425px;word-spacing:0px;text-anchor:middle;stroke-width:0.231825;stroke-linecap:round;stroke-linejoin:round"
       d="m 3.0013964,26.97719 q -0.1091304,0.045 -0.2275266,0.06793 -0.118396,0.02292 -0.2470876,0.02292 -0.3840152,0 -0.6084531,-0.170237 -0.2244379,-0.171055 -0.2244379,-0.46324 0,-0.293003 0.2244379,-0.46324 0.2244379,-0.171059 0.6084531,-0.171059 0.1286916,0 0.2470876,0.02292 0.1183962,0.02292 0.2275266,0.06793 v 0.2529 q -0.1101598,-0.05975 -0.2172311,-0.08757 -0.1070714,-0.02783 -0.2254675,-0.02783 -0.2120836,0 -0.3335682,0.108034 -0.1214848,0.108035 -0.1214848,0.297914 0,0.189061 0.1214848,0.297096 0.1214846,0.108035 0.3335682,0.108035 0.1183961,0 0.2254675,-0.02783 0.1070713,-0.02783 0.2172311,-0.08757 z m 0.4549297,-1.154827 h 0.3963697 v 0.732509 q 0,0.151413 0.061771,0.216888 0.062802,0.06466 0.2038473,0.06466 0.1420753,0 0.2038472,-0.06466 0.062802,-0.06548 0.062802,-0.216888 v -0.732509 h 0.3963703 v 0.732509 q 0,0.259447 -0.1636956,0.386307 -0.1636956,0.126859 -0.4993229,0.126859 -0.3345977,0 -0.4982931,-0.126859 -0.1636956,-0.12686 -0.1636956,-0.386307 z m 1.6553636,0 h 1.4166355 v 0.238168 H 6.018707 v 0.983772 H 5.6223374 V 26.060531 H 5.1116897 Z m 2.4501616,0.206249 q -0.1811975,0 -0.281062,0.106398 -0.099865,0.106398 -0.099865,0.29955 0,0.192335 0.099865,0.298733 0.099865,0.106398 0.281062,0.106398 0.182227,0 0.2820917,-0.106398 0.099864,-0.106398 0.099864,-0.298733 0,-0.193152 -0.099864,-0.29955 -0.099865,-0.106398 -0.2820917,-0.106398 z m 0,-0.228347 q 0.3706314,0 0.580656,0.1686 0.2100244,0.1686 0.2100244,0.465695 0,0.296277 -0.2100244,0.464878 -0.2100246,0.1686 -0.580656,0.1686 -0.3696018,0 -0.5806558,-0.1686 Q 6.771171,26.730837 6.771171,26.43456 q 0,-0.297095 0.2100245,-0.465695 0.211054,-0.1686 0.5806558,-0.1686 z m 1.2167833,0.0221 h 1.069683 v 0.238169 H 9.1750043 v 0.227528 h 0.6331618 v 0.238165 H 9.1750043 v 0.518077 H 8.7786346 Z m 1.5668244,0 h 1.069684 v 0.238168 h -0.673315 v 0.227528 h 0.633162 v 0.238167 h -0.633162 v 0.518077 h -0.396369 z"
       id="text12"
       inkscape:label="cutoff"
       aria-label="CUTOFF" /></g></svg>
